<svg data-v-fde0c5aa="" xmlns="http://www.w3.org/2000/svg" viewBox="0 0 300 300" class="iconLeftSlogan"><!----><defs data-v-fde0c5aa=""><!----></defs><rect data-v-fde0c5aa="" fill="#EBE9F5" x="0" y="0" width="300px" height="300px" class="logo-background-square"></rect><defs data-v-fde0c5aa=""><!----></defs><g data-v-fde0c5aa="" id="96ca8a20-079f-41bc-95d2-870d9cbe99ce" fill="#2E2B3C" transform="matrix(2.3333276044385762,0,0,2.3333276044385762,141.28028857667098,127.761696286362)"><path d="M6.71 5.94L9.97 10.50L6.82 10.50L4.17 6.85L3.51 6.85L3.51 10.50L0.91 10.50L0.91 1.34L3.51 1.34L3.51 5.00L4.19 5.00L6.69 1.34L9.87 1.34L6.71 5.94ZM13.75 10.50L11.23 10.50L11.23 3.22L13.75 3.22L13.75 10.50ZM13.73 1.04L13.73 1.04Q13.73 1.30 13.64 1.53Q13.54 1.76 13.37 1.93Q13.20 2.10 12.98 2.20Q12.75 2.30 12.50 2.30L12.50 2.30Q11.97 2.30 11.61 1.93Q11.24 1.57 11.24 1.04L11.24 1.04Q11.24 0.78 11.34 0.56Q11.44 0.34 11.61 0.17Q11.77 0.01 12.01-0.08Q12.24-0.18 12.50-0.18L12.50-0.18Q13.01-0.18 13.37 0.17Q13.73 0.53 13.73 1.04ZM19.54 8.97L19.54 8.97Q19.74 8.97 19.94 8.96Q20.13 8.95 20.29 8.92L20.29 8.92Q20.47 8.89 20.64 8.85L20.64 8.85L20.61 10.43Q20.37 10.49 20.10 10.54L20.10 10.54Q19.87 10.58 19.55 10.62Q19.24 10.65 18.87 10.65L18.87 10.65Q18.17 10.61 17.61 10.36L17.61 10.36Q17.37 10.25 17.15 10.08Q16.93 9.91 16.75 9.66Q16.58 9.41 16.47 9.08Q16.37 8.75 16.37 8.30L16.37 8.30L16.37 5.53L14.94 5.53L14.94 3.75L16.41 3.75L16.86 1.46L18.87 1.46L18.87 3.75L20.66 3.75L20.66 5.53L18.90 5.53L18.90 8.33Q18.93 8.68 19.09 8.83Q19.25 8.97 19.54 8.97ZM24.51 10.50L21.99 10.50L21.99 3.22L24.51 3.22L24.51 10.50ZM24.50 1.04L24.50 1.04Q24.50 1.30 24.40 1.53Q24.30 1.76 24.14 1.93Q23.97 2.10 23.74 2.20Q23.52 2.30 23.27 2.30L23.27 2.30Q22.74 2.30 22.37 1.93Q22.01 1.57 22.01 1.04L22.01 1.04Q22.01 0.78 22.11 0.56Q22.20 0.34 22.37 0.17Q22.54 0.01 22.77-0.08Q23.00-0.18 23.27-0.18L23.27-0.18Q23.77-0.18 24.14 0.17Q24.50 0.53 24.50 1.04ZM30.24 3.04L30.24 3.04Q30.87 3.04 31.63 3.21Q32.38 3.39 33.03 3.83Q33.68 4.27 34.12 5.01Q34.55 5.75 34.55 6.89L34.55 6.89Q34.55 8.02 34.12 8.75Q33.68 9.48 33.03 9.90Q32.38 10.32 31.63 10.49Q30.87 10.65 30.24 10.65L30.24 10.65Q29.61 10.65 28.87 10.49Q28.13 10.32 27.49 9.90Q26.85 9.48 26.42 8.75Q25.98 8.02 25.98 6.89L25.98 6.89Q25.98 6.13 26.19 5.56Q26.39 4.98 26.72 4.56Q27.05 4.13 27.49 3.84Q27.93 3.54 28.40 3.37Q28.87 3.19 29.34 3.12Q29.82 3.04 30.24 3.04ZM30.24 8.90L30.24 8.90Q31.01 8.90 31.46 8.46Q31.91 8.01 31.91 6.89L31.91 6.89Q31.91 5.75 31.47 5.27Q31.02 4.79 30.24 4.79L30.24 4.79Q29.46 4.79 29.04 5.27Q28.63 5.75 28.63 6.89L28.63 6.89Q28.63 8.01 29.04 8.46Q29.46 8.90 30.24 8.90ZM40.40 3.04L40.40 3.04Q40.96 3.04 41.52 3.15Q42.07 3.26 42.51 3.61Q42.95 3.96 43.23 4.61Q43.51 5.26 43.51 6.33L43.51 6.33L43.51 10.50L41.17 10.50L41.17 7.17Q41.17 6.13 40.84 5.59Q40.50 5.05 39.87 5.05L39.87 5.05Q39.42 5.05 39.12 5.25Q38.81 5.45 38.62 5.80Q38.43 6.15 38.35 6.62Q38.26 7.08 38.26 7.64L38.26 7.64L38.26 10.50L35.74 10.50L35.74 3.22L37.63 3.22L38.05 4.56Q38.05 4.56 38.18 4.33Q38.30 4.09 38.58 3.80Q38.86 3.51 39.31 3.28Q39.76 3.04 40.40 3.04ZM48.01 3.02L48.01 3.02Q48.68 3.02 49.37 3.21Q50.06 3.39 50.74 3.81L50.74 3.81L49.88 5.21Q49.77 5.14 49.53 5.03Q49.29 4.93 49.01 4.84Q48.72 4.75 48.41 4.69Q48.09 4.63 47.84 4.66Q47.59 4.69 47.43 4.82Q47.26 4.94 47.26 5.22L47.26 5.22Q47.26 5.43 47.59 5.57Q47.92 5.71 48.34 5.85L48.34 5.85Q48.76 5.98 49.21 6.16Q49.66 6.34 50.03 6.62Q50.40 6.90 50.64 7.31Q50.88 7.73 50.88 8.33L50.88 8.33Q50.88 8.95 50.63 9.39Q50.39 9.83 49.98 10.11Q49.57 10.39 49.03 10.53Q48.48 10.67 47.89 10.67L47.89 10.67Q47.08 10.67 46.23 10.44Q45.37 10.22 44.70 9.65L44.70 9.65L45.57 8.16Q45.72 8.33 46.00 8.48Q46.27 8.64 46.59 8.75Q46.90 8.86 47.24 8.92Q47.57 8.97 47.84 8.95Q48.10 8.92 48.28 8.81Q48.45 8.69 48.45 8.46L48.45 8.46Q48.45 8.13 48.20 7.94Q47.95 7.74 47.57 7.59Q47.19 7.45 46.75 7.31Q46.30 7.17 45.92 6.93Q45.54 6.69 45.29 6.31Q45.04 5.94 45.04 5.33L45.04 5.33Q45.04 4.73 45.29 4.30Q45.54 3.86 45.96 3.58Q46.38 3.29 46.91 3.16Q47.45 3.02 48.01 3.02Z"></path></g><defs data-v-fde0c5aa=""><linearGradient data-v-fde0c5aa="" gradientTransform="rotate(25)" id="8744cd64-2490-4c73-b31f-efb2d44ef9f9" x1="0%" y1="0%" x2="100%" y2="0%"><stop data-v-fde0c5aa="" offset="0%" stop-color="#6566CE" stop-opacity="1"></stop><stop data-v-fde0c5aa="" offset="100%" stop-color="#DBC1D0" stop-opacity="1"></stop></linearGradient></defs><g data-v-fde0c5aa="" id="143cfb4a-601f-4728-b29f-87a7822989fa" stroke="none" fill="url(#8744cd64-2490-4c73-b31f-efb2d44ef9f9)" transform="matrix(2.825113023684502,0,0,2.825113023684502,40,104.79819162104798)"><path d="M16 19.586l7.496-12.954H8.504zM7.496 12.414L0 25.368h14.992zM24.504 12.414l-7.496 12.954H32z"></path></g><defs data-v-fde0c5aa=""><!----></defs><g data-v-fde0c5aa="" id="f98811d8-c6fe-404d-8fa4-f5737854d681" fill="#2E2B3C" transform="matrix(0.34639450890966467,0,0,0.34639450890966467,143.16114060579662,161.80963613578015)"><path d="M1.12 7.70C1.12 6.38 1.53 5.29 2.34 4.41C3.15 3.53 4.18 3.09 5.42 3.09C6.66 3.09 7.69 3.53 8.50 4.41C9.31 5.29 9.72 6.38 9.72 7.70C9.72 9.02 9.31 10.11 8.50 10.99C7.69 11.87 6.66 12.31 5.42 12.31C4.18 12.31 3.15 11.87 2.34 10.99C1.53 10.11 1.12 9.02 1.12 7.70ZM0.70 7.70C0.70 9.16 1.15 10.36 2.04 11.30C2.93 12.24 4.06 12.71 5.42 12.71C6.78 12.71 7.91 12.24 8.80 11.30C9.69 10.36 10.14 9.16 10.14 7.70C10.14 6.24 9.69 5.04 8.80 4.10C7.91 3.16 6.78 2.69 5.42 2.69C4.06 2.69 2.93 3.16 2.04 4.10C1.15 5.04 0.70 6.24 0.70 7.70ZM19.52 2.80ZM19.10 2.80L19.10 12.60L19.52 12.60L19.52 8.48L21.07 8.48L24.19 12.60L24.74 12.60L21.55 8.47C22.44 8.41 23.16 8.15 23.70 7.67C24.23 7.20 24.50 6.52 24.50 5.64C24.50 4.71 24.20 4.00 23.59 3.52C22.98 3.04 22.19 2.80 21.20 2.80ZM19.52 3.21L21.20 3.21C22.06 3.21 22.76 3.41 23.28 3.83C23.80 4.24 24.07 4.85 24.07 5.64C24.07 6.44 23.80 7.04 23.28 7.45C22.76 7.87 22.06 8.08 21.20 8.08L19.52 8.08ZM33.14 2.80L33.14 12.60L35.52 12.60C36.94 12.60 38.07 12.15 38.93 11.25C39.78 10.35 40.21 9.17 40.21 7.70C40.21 6.23 39.78 5.05 38.93 4.15C38.07 3.25 36.94 2.80 35.52 2.80ZM33.56 3.22L35.52 3.22C36.82 3.22 37.85 3.63 38.61 4.46C39.38 5.28 39.76 6.37 39.76 7.70C39.76 9.09 39.38 10.18 38.63 10.98C37.87 11.78 36.83 12.18 35.52 12.18L33.56 12.18ZM49.59 7.48L53.93 7.48L53.93 7.08L49.59 7.08L49.59 3.21L54.21 3.21L54.21 2.80L49.17 2.80L49.17 12.60L54.21 12.60L54.21 12.19L49.59 12.19ZM64.01 2.80ZM63.59 2.80L63.59 12.60L64.01 12.60L64.01 8.48L65.56 8.48L68.68 12.60L69.23 12.60L66.04 8.47C66.93 8.41 67.65 8.15 68.19 7.67C68.72 7.20 68.99 6.52 68.99 5.64C68.99 4.71 68.69 4.00 68.08 3.52C67.48 3.04 66.68 2.80 65.69 2.80ZM64.01 3.21L65.69 3.21C66.56 3.21 67.25 3.41 67.77 3.83C68.30 4.24 68.56 4.85 68.56 5.64C68.56 6.44 68.30 7.04 67.77 7.45C67.25 7.87 66.56 8.08 65.69 8.08L64.01 8.08ZM88.83 2.80L88.83 12.60L90.93 12.60C93.06 12.60 94.12 11.69 94.12 9.87C94.12 9.19 93.89 8.62 93.42 8.17C92.94 7.72 92.38 7.41 91.71 7.25C92.95 7.02 93.56 6.30 93.56 5.11C93.56 4.40 93.31 3.84 92.80 3.42C92.29 3.01 91.57 2.80 90.65 2.80ZM89.25 7.08L89.25 3.21L90.65 3.21C91.42 3.21 92.03 3.37 92.48 3.71C92.92 4.05 93.14 4.51 93.14 5.11C93.14 5.60 93.01 5.99 92.74 6.31C92.47 6.62 92.16 6.83 91.81 6.93C91.46 7.03 91.07 7.08 90.65 7.08ZM89.25 7.48L90.93 7.48C91.33 7.48 91.73 7.56 92.13 7.72C92.54 7.88 92.89 8.16 93.20 8.54C93.51 8.92 93.66 9.37 93.66 9.87C93.66 11.42 92.75 12.19 90.93 12.19L89.25 12.19ZM103.64 7.48L107.98 7.48L107.98 7.08L103.64 7.08L103.64 3.21L108.26 3.21L108.26 2.80L103.22 2.80L103.22 12.60L108.26 12.60L108.26 12.19L103.64 12.19ZM116.66 3.21L119.18 3.21L119.18 12.60L119.60 12.60L119.60 3.21L122.12 3.21L122.12 2.80L116.66 2.80ZM130.24 3.21L132.76 3.21L132.76 12.60L133.18 12.60L133.18 3.21L135.70 3.21L135.70 2.80L130.24 2.80ZM144.66 7.48L149.00 7.48L149.00 7.08L144.66 7.08L144.66 3.21L149.28 3.21L149.28 2.80L144.24 2.80L144.24 12.60L149.28 12.60L149.28 12.19L144.66 12.19ZM159.08 2.80ZM158.66 2.80L158.66 12.60L159.08 12.60L159.08 8.48L160.64 8.48L163.76 12.60L164.30 12.60L161.11 8.47C162.01 8.41 162.72 8.15 163.26 7.67C163.80 7.20 164.07 6.52 164.07 5.64C164.07 4.71 163.76 4.00 163.16 3.52C162.55 3.04 161.75 2.80 160.76 2.80ZM159.08 3.21L160.76 3.21C161.63 3.21 162.33 3.41 162.85 3.83C163.37 4.24 163.63 4.85 163.63 5.64C163.63 6.44 163.37 7.04 162.85 7.45C162.33 7.87 161.63 8.08 160.76 8.08L159.08 8.08ZM174.01 11.16L172.42 14.69L172.63 14.81L174.43 11.34ZM194.89 9.74L194.52 9.90C195.14 11.77 196.19 12.71 197.67 12.71C198.58 12.71 199.27 12.45 199.74 11.93C200.20 11.41 200.44 10.77 200.44 10.01C200.44 9.66 200.38 9.35 200.26 9.06C200.15 8.78 200.02 8.55 199.87 8.37C199.73 8.19 199.52 8.02 199.26 7.86C199.00 7.70 198.79 7.58 198.63 7.50C198.46 7.43 198.24 7.34 197.96 7.22C197.92 7.21 197.81 7.16 197.61 7.08C197.41 7.01 197.29 6.96 197.25 6.94C197.20 6.91 197.09 6.87 196.92 6.80C196.76 6.73 196.65 6.67 196.59 6.64C196.54 6.60 196.45 6.54 196.32 6.45C196.19 6.37 196.10 6.30 196.06 6.24C196.01 6.18 195.94 6.10 195.86 6.00C195.78 5.90 195.72 5.80 195.69 5.70C195.65 5.61 195.62 5.50 195.59 5.38C195.57 5.25 195.55 5.12 195.55 4.98C195.55 4.41 195.75 3.95 196.15 3.62C196.54 3.29 197.04 3.12 197.62 3.12C198.75 3.12 199.54 3.77 199.98 5.07L200.38 4.90C200.18 4.23 199.84 3.69 199.37 3.29C198.91 2.89 198.33 2.69 197.64 2.69C196.95 2.69 196.35 2.90 195.84 3.33C195.33 3.76 195.08 4.33 195.08 5.04C195.08 5.39 195.15 5.71 195.29 5.99C195.44 6.27 195.65 6.51 195.94 6.71C196.22 6.91 196.48 7.07 196.71 7.17C196.94 7.28 197.23 7.41 197.60 7.55C197.88 7.65 198.07 7.72 198.17 7.77C198.27 7.82 198.45 7.90 198.69 8.02C198.93 8.13 199.11 8.24 199.21 8.34C199.32 8.45 199.45 8.58 199.59 8.75C199.74 8.92 199.84 9.11 199.89 9.32C199.95 9.54 199.98 9.78 199.98 10.05C199.98 10.72 199.79 11.27 199.41 11.68C199.03 12.09 198.46 12.29 197.71 12.29C196.48 12.29 195.54 11.44 194.89 9.74ZM209.89 7.48L214.23 7.48L214.23 7.08L209.89 7.08L209.89 3.21L214.51 3.21L214.51 2.80L209.47 2.80L209.47 12.60L214.51 12.60L214.51 12.19L209.89 12.19ZM223.89 2.80L223.89 12.60L228.37 12.60L228.37 12.19L224.31 12.19L224.31 2.80ZM236.91 2.80L236.91 12.60L241.39 12.60L241.39 12.19L237.33 12.19L237.33 2.80ZM261.55 7.64L265.47 7.64L265.47 7.24L261.55 7.24L261.55 3.21L265.61 3.21L265.61 2.80L261.13 2.80L261.13 12.60L261.55 12.60ZM277.23 2.45L272.96 12.60L273.45 12.60L274.72 9.52L279.73 9.52L281.01 12.60L281.50 12.60ZM277.23 3.50L279.54 9.07L274.92 9.07ZM289.65 9.74L289.27 9.90C289.89 11.77 290.94 12.71 292.42 12.71C293.33 12.71 294.02 12.45 294.49 11.93C294.96 11.41 295.19 10.77 295.19 10.01C295.19 9.66 295.13 9.35 295.01 9.06C294.90 8.78 294.77 8.55 294.62 8.37C294.48 8.19 294.28 8.02 294.01 7.86C293.75 7.70 293.54 7.58 293.38 7.50C293.21 7.43 292.99 7.34 292.71 7.22C292.67 7.21 292.56 7.16 292.36 7.08C292.17 7.01 292.04 6.96 292.00 6.94C291.95 6.91 291.84 6.87 291.68 6.80C291.51 6.73 291.40 6.67 291.35 6.64C291.30 6.60 291.20 6.54 291.07 6.45C290.94 6.37 290.85 6.30 290.81 6.24C290.76 6.18 290.70 6.10 290.61 6.00C290.53 5.90 290.47 5.80 290.44 5.70C290.40 5.61 290.37 5.50 290.35 5.38C290.32 5.25 290.30 5.12 290.30 4.98C290.30 4.41 290.50 3.95 290.90 3.62C291.30 3.29 291.79 3.12 292.38 3.12C293.51 3.12 294.29 3.77 294.73 5.07L295.13 4.90C294.93 4.23 294.59 3.69 294.13 3.29C293.66 2.89 293.08 2.69 292.39 2.69C291.70 2.69 291.10 2.90 290.59 3.33C290.08 3.76 289.83 4.33 289.83 5.04C289.83 5.39 289.90 5.71 290.04 5.99C290.19 6.27 290.40 6.51 290.69 6.71C290.97 6.91 291.23 7.07 291.46 7.17C291.69 7.28 291.98 7.41 292.35 7.55C292.63 7.65 292.82 7.72 292.92 7.77C293.02 7.82 293.20 7.90 293.44 8.02C293.68 8.13 293.86 8.24 293.96 8.34C294.07 8.45 294.20 8.58 294.34 8.75C294.49 8.92 294.59 9.11 294.64 9.32C294.70 9.54 294.73 9.78 294.73 10.05C294.73 10.72 294.54 11.27 294.16 11.68C293.78 12.09 293.22 12.29 292.46 12.29C291.23 12.29 290.29 11.44 289.65 9.74ZM303.24 3.21L305.76 3.21L305.76 12.60L306.18 12.60L306.18 3.21L308.70 3.21L308.70 2.80L303.24 2.80ZM317.66 7.48L322.00 7.48L322.00 7.08L317.66 7.08L317.66 3.21L322.28 3.21L322.28 2.80L317.24 2.80L317.24 12.60L322.28 12.60L322.28 12.19L317.66 12.19ZM332.08 2.80ZM331.66 2.80L331.66 12.60L332.08 12.60L332.08 8.48L333.63 8.48L336.76 12.60L337.30 12.60L334.11 8.47C335.01 8.41 335.72 8.15 336.26 7.67C336.80 7.20 337.06 6.52 337.06 5.64C337.06 4.71 336.76 4.00 336.15 3.52C335.55 3.04 334.75 2.80 333.76 2.80ZM332.08 3.21L333.76 3.21C334.63 3.21 335.32 3.41 335.85 3.83C336.37 4.24 336.63 4.85 336.63 5.64C336.63 6.44 336.37 7.04 335.85 7.45C335.32 7.87 334.63 8.08 333.76 8.08L332.08 8.08Z"></path></g></svg>