<?xml version="1.0" encoding="UTF-8"?>
<svg version="1.1" xmlns="http://www.w3.org/2000/svg" width="643" height="388">
<path d="M0 0 C94.38 0 188.76 0 286 0 C285.13501415 3.45994341 284.27722007 5.54967515 282.55078125 8.578125 C282.0398291 9.47893799 281.52887695 10.37975098 281.00244141 11.30786133 C280.16592041 12.76421997 280.16592041 12.76421997 279.3125 14.25 C278.44117432 15.77886841 278.44117432 15.77886841 277.55224609 17.33862305 C272.29474606 26.54100953 266.95108559 35.69305158 261.59765625 44.83984375 C257.89487032 51.17086977 254.2250559 57.52063453 250.5625 63.875 C249.94076904 64.95354248 249.31903809 66.03208496 248.6784668 67.14331055 C246.78518248 70.42860776 244.89248083 73.71423989 243 77 C235.05595716 90.7925937 227.09156355 104.57211155 219.05834961 118.31298828 C214.8392083 125.53881225 210.67785499 132.79597446 206.53833008 140.06762695 C202.15072708 147.76353342 197.68368634 155.41195109 193.2109375 163.05859375 C189.43661568 169.51817097 185.70122082 175.99828973 182 182.5 C177.20483465 190.92165373 172.33834977 199.29973684 167.44604492 207.6652832 C162.22319528 216.60151757 157.04831897 225.56489045 151.88549805 234.53588867 C151.290354 235.5694751 150.69520996 236.60306152 150.08203125 237.66796875 C149.55843018 238.57828857 149.0348291 239.4886084 148.49536133 240.42651367 C148.00189209 241.27576416 147.50842285 242.12501465 147 243 C146.48268311 243.93497314 145.96536621 244.86994629 145.43237305 245.83325195 C144.95968994 246.54827881 144.48700684 247.26330566 144 248 C143.34 248 142.68 248 142 248 C140.47623463 245.35880669 138.9524704 242.71761273 137.42871094 240.07641602 C136.08432862 237.74616432 134.73993029 235.41592188 133.39550781 233.08569336 C129.9468146 227.10817017 126.49840815 221.13048203 123.05078125 215.15234375 C117.10915946 204.85029539 111.16428915 194.55019807 105.20214844 184.26000977 C101.29321108 177.51141207 97.39623306 170.75593856 93.5 164 C85.11396538 149.46112832 76.71502013 134.93055176 68.25 120.4375 C62.66873527 110.88166342 57.12999178 101.30193906 51.60644531 91.71264648 C47.42717135 84.46161698 43.22285118 77.22572787 39 70 C30.55376302 55.54487891 22.20031143 41.0364321 13.8495636 26.52600098 C12.46340262 24.11782525 11.07647251 21.71009301 9.68942261 19.3024292 C8.70760702 17.59741766 7.72696016 15.8917333 6.74633789 14.18603516 C6.15328857 13.15655762 5.56023926 12.12708008 4.94921875 11.06640625 C4.16550903 9.7043103 4.16550903 9.7043103 3.3659668 8.31469727 C2.30022034 6.50873799 1.16319248 4.74478871 0 3 C0 2.01 0 1.02 0 0 Z " fill="#000000" transform="translate(179,17)"/>
<path d="M0 0 C4.01626028 3.49359627 6.15923389 7.56290149 8.625 12.1875 C9.51776873 13.82778344 10.41234174 15.46708597 11.30859375 17.10546875 C11.75960449 17.93095215 12.21061523 18.75643555 12.67529297 19.60693359 C14.61460416 23.1102746 16.64247972 26.55760567 18.6875 30 C27.61870582 45.07275705 36.31726185 60.2830885 45 75.5 C54.25165914 91.7138452 63.58313474 107.88154558 73 124 C82.93573125 141.00657565 92.76828913 158.0719504 102.52099609 175.18408203 C106.79244783 182.66516373 111.13892706 190.10144398 115.49047852 197.53613281 C120.89228049 206.78108176 126.20457893 216.07608182 131.49511719 225.38500977 C132.12579102 226.49287842 132.75646484 227.60074707 133.40625 228.7421875 C134.00824219 229.80018555 134.61023438 230.85818359 135.23046875 231.94824219 C137.39183731 235.675768 139.65106664 239.33760852 141.95117188 242.98095703 C143 245 143 245 143 248 C116.02882026 248.15612014 89.05760533 248.30402894 62.08633137 248.4429636 C49.5543571 248.50769646 37.02240558 248.5748483 24.49047852 248.64819336 C-31.01789582 248.97176138 -86.5006535 249.21817271 -142 248 C-140.46855447 243.17008895 -138.43989217 239.06203586 -135.8125 234.75 C-134.90501595 233.23381085 -133.99885194 231.71683112 -133.09375 230.19921875 C-132.59875 229.37083496 -132.10375 228.54245117 -131.59375 227.68896484 C-128.6209771 222.67332135 -125.72060528 217.61581773 -122.8125 212.5625 C-122.17546143 211.45680664 -121.53842285 210.35111328 -120.88208008 209.21191406 C-119.57299343 206.93975918 -118.26415738 204.66745991 -116.95556641 202.39501953 C-113.80667946 196.9283002 -110.65316736 191.46425113 -107.5 186 C-106.2499765 183.83334689 -104.99997653 181.66668021 -103.75 179.5 C-101.25 175.16666667 -98.75 170.83333333 -96.25 166.5 C-95.63092773 165.42693604 -95.01185547 164.35387207 -94.37402344 163.24829102 C-93.12729744 161.08731012 -91.88055273 158.92634002 -90.63378906 156.76538086 C-87.45854117 151.26181149 -84.28364505 145.75803968 -81.109375 140.25390625 C-62.39649643 107.80756193 -62.39649643 107.80756193 -53.86083984 93.20239258 C-48.30041015 83.68715821 -42.78131235 74.15065986 -37.32397461 64.57592773 C-29.31619724 50.52936763 -21.16613163 36.56602682 -13.01171875 22.60424805 C-8.6294234 15.09479858 -4.28790407 7.56375625 0 0 Z " fill="#000000" transform="translate(158,129)"/>
<path d="M0 0 C3.78877279 1.26292426 4.03289649 2.34488972 5.8984375 5.79296875 C6.73097046 7.31011475 6.73097046 7.31011475 7.58032227 8.85791016 C8.17256592 9.9566748 8.76480957 11.05543945 9.375 12.1875 C10.63971878 14.49209867 11.90668946 16.79546281 13.17578125 19.09765625 C13.65708748 19.97318146 13.65708748 19.97318146 14.14811707 20.86639404 C17.1735515 26.3543803 20.34761968 31.74653229 23.5625 37.125 C28.51480095 45.43380219 33.31503911 53.81724615 38.05273438 62.25 C42.56311016 70.26363285 47.18358325 78.20941759 51.83081055 86.14428711 C55.67843441 92.71898747 59.48154671 99.31712901 63.25 105.9375 C66.72855538 112.04650043 70.23500577 118.1358853 73.8125 124.1875 C80.63824944 135.73556215 87.30623985 147.37513653 94 159 C96.51995294 163.37550788 99.04068268 167.75056637 101.5625 172.125 C102.18125 173.19830566 102.8 174.27161133 103.4375 175.37744141 C108.23969328 183.69965241 113.08014654 191.99909966 117.93066406 200.29321289 C122.26761978 207.7189243 126.54288687 215.17824361 130.78466797 222.65869141 C133.06316376 226.66409615 135.37138283 230.64229747 137.78125 234.5703125 C138.21010498 235.27019287 138.63895996 235.97007324 139.08081055 236.69116211 C139.87949311 237.98567694 140.6852431 239.2758682 141.49926758 240.56079102 C142.39232875 242.0054061 143.20554889 243.49889426 144 245 C143.67 245.66 143.34 246.32 143 247 C49.28 247 -44.44 247 -141 247 C-140.16885571 242.84427856 -139.69231693 241.0789353 -137.62109375 237.68359375 C-137.12037354 236.85166504 -136.61965332 236.01973633 -136.10375977 235.16259766 C-135.55389404 234.26331543 -135.00402832 233.3640332 -134.4375 232.4375 C-133.24545108 230.45559549 -132.05544266 228.47246264 -130.8671875 226.48828125 C-130.23651367 225.43592285 -129.60583984 224.38356445 -128.95605469 223.29931641 C-125.5864293 217.61570214 -122.32734609 211.86914379 -119.0625 206.125 C-111.24058977 192.38404677 -103.28165018 178.72546899 -95.29101562 165.08203125 C-87.79991574 152.28651515 -80.38198118 139.45161476 -73.03613281 126.57226562 C-63.20815826 109.34243578 -53.2794211 92.17171838 -43.2734375 75.04467773 C-33.86060367 58.92334479 -24.55206169 42.74178129 -15.30322266 26.52587891 C-10.24324848 17.66011218 -5.12534002 8.8280955 0 0 Z " fill="#000000" transform="translate(484,130)"/>
</svg>
